<svg id="Layer_1" data-name="Layer 1" xmlns="http://www.w3.org/2000/svg" viewBox="0 0 145.5 115.2"><title>kubesmith-light</title><polygon points="9.01 82.11 9.01 43.27 72.75 3.54 136.49 43.27 136.49 82.11 139.49 82.11 139.49 41.6 72.75 0 6.01 41.6 6.01 82.11 9.01 82.11 9.01 82.11" style="fill:#fff"/><polygon points="19.25 82.11 19.25 49.13 72.75 15.4 126.25 49.13 126.25 82.11 132.25 82.11 132.25 45.82 72.75 8.31 13.25 45.82 13.25 82.11 19.25 82.11 19.25 82.11" style="fill:#fff"/><path d="M336.4,490.55v1.2h-2v1.05l2.19,3.13-4.32-3-12.6-.14c-.61,0-1,.21-1,.62,0,1,2.12,4.33,5.6,6.15,5.72,3,16.35,2,16.35,8,0,4.57-4.52,8-7.71,8a5.94,5.94,0,0,0-.33,1.86l-.71.25v3h5.66s2.61-2.86,8.85-2.86a11,11,0,0,1,7.54,2.86h5.69v-3.12h-.71v-2c-1.79,0-8.17-1.92-8.17-7.71s7.7-12.32,14.16-12.32h.58v-4.94Zm2.05,24.55c.15-.09.37-.24.63-.43a9.61,9.61,0,0,0,.91-.74,9.29,9.29,0,0,0,1-1.11l.25-.33c.07-.12.16-.23.23-.36a8.41,8.41,0,0,0,.42-.79,7,7,0,0,0,.53-1.82l0-.25a1.94,1.94,0,0,0,0-.24l0-.24v-.53l0-.26v-.26c0-.09,0-.17,0-.26a7.85,7.85,0,0,0-.46-2,6.63,6.63,0,0,0-.45-.93l-.13-.22c-.05-.07-.09-.15-.14-.21s-.2-.28-.31-.41l-.17-.2-.18-.18a4,4,0,0,0-.36-.35l-.39-.33c-.14-.1-.26-.21-.4-.3a12.07,12.07,0,0,0-1.71-.95,17.68,17.68,0,0,0-1.66-.65c-.53-.19-1-.34-1.46-.46l-1.15-.33-.74-.2-.26-.07h.27c.18,0,.44,0,.77,0a21.58,21.58,0,0,1,2.75.37,15,15,0,0,1,1.8.5,10.11,10.11,0,0,1,1.93.9l.24.15.24.16c.15.11.31.22.46.35s.3.25.44.39l.21.21.2.22a5.71,5.71,0,0,1,.38.48,4,4,0,0,1,.34.5,6.69,6.69,0,0,1,.54,1.11,8,8,0,0,1,.5,2.35,8.51,8.51,0,0,1-.14,2.31,6.94,6.94,0,0,1-.76,2,7.49,7.49,0,0,1-1.16,1.53,8.37,8.37,0,0,1-2.3,1.61c-.31.14-.55.23-.72.29l-.26.08Zm6.26,1.27-.56.08h0l-.55.07-.54.09-.53.1-.53.12-.27.06-.25.07-.52.15-.51.19h0l-.25.09-.24.11-.24.11-.12,0-.12.06h0c-.16.09-.32.16-.46.25l-.44.29-.22.15a1.56,1.56,0,0,0-.2.16h0c-.13.11-.27.22-.39.34h0a4.12,4.12,0,0,0-.35.37l-.15.2h0l-.07.1-.06.09-.11.2h-.2l-1,0-1-.05-1-.08h0l-.48,0-.49-.06-.57-.07.57-.08.49-.05.48,0h0l1-.07,1-.06.76,0,.06-.09h0c.06-.1.12-.17.17-.25a2.33,2.33,0,0,1,.19-.23,1.5,1.5,0,0,1,.2-.23h0a5.36,5.36,0,0,1,.43-.4h0l.23-.19.23-.17h0c.16-.12.32-.21.49-.32h0l.51-.27h0l.13-.07h0l.13-.05.26-.11.27-.11h0l.28-.08.55-.17h0l.56-.12h0l.28-.05h0l.28,0,.56-.06h0l.57,0h.57l.56,0,.55.05.6,0Zm6.22.25,0,.07,0-.07.27.08h0l.26.11.27.11.13.06h0l.13.06.51.27h0c.16.11.33.2.49.32h0l.24.17.23.19h0a5.25,5.25,0,0,1,.42.4h0l.2.22.18.24a2.7,2.7,0,0,1,.18.25h0l0,.09.77,0,1,.06,1,.07h0l.49,0,.49.05.56.08-.56.07-.49.06-.49,0h0l-1,.08-1,.05-1,0h-.2l0,0-.08-.16-.06-.09-.07-.1h0l-.16-.2a4,4,0,0,0-.34-.37h0a4.17,4.17,0,0,0-.38-.34h0a1.56,1.56,0,0,0-.2-.16l-.21-.15-.44-.29c-.15-.09-.31-.16-.47-.25h0l-.11-.06-.12,0-.25-.11-.24-.11-.25-.09h0l-.5-.19-.52-.15-.26-.07-.26-.06-.53-.12-.54-.1-.54-.09-.55-.07-.55-.08-.59-.1.59,0,.56-.05.56,0h.57l.56,0h0l.56.06.28,0,.28.05h0l.56.12Z" transform="translate(-269.33 -438.55)" style="fill:#fff"/><path d="M356.88,470.3c-.18.16-.38.28-.56.44s-.23.09-.34-.06c-.52-.75-1.06-1.48-1.59-2.23-.11-.15-.19-.2-.36-.09Q352,469.7,349.9,471c-.15.1-.17.19-.07.34.49.81,1,1.62,1.44,2.43.29.48.29.47-.18.8l-.23.16c-2.16,1.59-16.71,10.68-16.93,10.89a1,1,0,0,0-.06,1.38c.34.56.7,1.1,1.05,1.64a1.11,1.11,0,0,0,1.57.34c.61-.4,11.88-7.86,13.72-9,1-.57,2.62-1.67,3.62-2.19l0,0,0,0c.4.54.73,1.13,1.16,1.66a12.15,12.15,0,0,1,.75,1.08c.06.1.17.17.26.07s.45-.26.67-.4l2-1.34,1.45-.93c.16-.1.18-.19.07-.36-.84-1.37-1.58-2.8-2.46-4.14,0-.06-.11-.12,0-.21s.18.18.27.28c.29.3.56.63.86.92s.34.31.73.05c.13-.09.16-.16.07-.28a.86.86,0,0,1-.1-.16c-.45-.67-.91-1.35-1.35-2s-.71-1.14-1.06-1.71C357.13,470.19,357,470.17,356.88,470.3Zm-7.22,8.78c-1.09.76-2.22,1.46-3.31,2.22-1.55,1.07-3.14,2.09-4.72,3.14q-2.07,1.37-4.12,2.76c-.21.14-.32.13-.45-.09-.33-.55-.34-.55.2-.87l5.76-3.42c2.33-1.38,4.64-2.76,7-4.11.72-.42,1.41-.88,2.16-1.25C351.33,478,350.47,478.51,349.66,479.08Zm2.37-5.39c-.23-.56-.46-1.11-.7-1.67a.27.27,0,0,1,.06-.35c.34-.34.67-.69,1-1l.06,0a3.31,3.31,0,0,1-.12.45,3.85,3.85,0,0,0,0,2c.07.52.14,1,.19,1.56A9.11,9.11,0,0,1,352,473.69Zm5.29,5c-.44.11-.83.36-1.28.45a.23.23,0,0,1-.25-.1c-.58-.73-1.25-1.38-1.86-2.08l-.12-.18c.69.42,1.32.8,1.94,1.21a3.49,3.49,0,0,0,1.53.49c.08,0,.18,0,.25.07A.28.28,0,0,1,357.32,478.66Zm-4-8.47c.2-.08.41-.13.61-.23a.41.41,0,0,1,.57.13c.53.58,1.08,1.14,1.63,1.71.12.13.2.29.34.42-.72-.43-1.45-.83-2.15-1.3a3.91,3.91,0,0,0-1.29-.38l-.33-.06A2.65,2.65,0,0,1,353.3,470.19Zm4.74,4.68c.26.67.53,1.33.8,2a.4.4,0,0,1-.1.53c-.28.25-.52.54-.78.82a.42.42,0,0,1-.22.14c.08-.34.16-.65.22-1a6,6,0,0,0-.11-1.79,9.64,9.64,0,0,1-.09-1.43C357.85,474.4,357.94,474.64,358,474.87Z" transform="translate(-269.33 -438.55)" style="fill:#fff"/><path d="M343,480.58c-.75-.5-1.5-1-2.24-1.5s-1.67-1.08-2.5-1.62c.75.37,1.44.83,2.16,1.25,1,.55,1.92,1.11,2.87,1.68l.51-.34a10.59,10.59,0,0,0,1.83-1.34c-2.81-1.79-5.28-3.39-6.07-4l-.23-.16c-.47-.33-.47-.32-.19-.8.49-.81,1-1.62,1.45-2.43.1-.15.08-.24-.07-.34q-2.07-1.32-4.13-2.65c-.17-.11-.26-.06-.36.09-.53.75-1.07,1.48-1.59,2.23-.11.15-.19.18-.34.06s-.38-.28-.56-.44-.25-.11-.35.06c-.35.57-.7,1.15-1.06,1.71s-.9,1.36-1.35,2c0,.06-.06.11-.1.16s-.06.19.07.28c.39.26.4.27.73-.05s.57-.62.86-.92c.09-.1.14-.22.27-.28s0,.15,0,.21c-.88,1.34-1.63,2.77-2.47,4.14-.1.17-.08.26.08.36l1.45.93,2.05,1.34c.22.14.49.19.67.4s.2,0,.26-.07a12.15,12.15,0,0,1,.75-1.08c.43-.53.76-1.12,1.16-1.66l0,0,0,0c1,.52,2.67,1.62,3.62,2.19.34.2,1,.63,1.86,1.18Q342.5,480.88,343,480.58Zm-10.54-2.37c-.26-.28-.5-.57-.78-.82a.4.4,0,0,1-.1-.53c.27-.66.54-1.32.8-2,.1-.23.19-.47.28-.7a9.64,9.64,0,0,1-.09,1.43,6,6,0,0,0-.11,1.79c.06.31.14.62.21,1A.43.43,0,0,1,332.44,478.21Zm4-1.28c-.61.7-1.28,1.35-1.86,2.08a.23.23,0,0,1-.25.1c-.45-.09-.84-.34-1.28-.45a.28.28,0,0,1-.21-.14c.07-.09.16-.06.25-.07a3.49,3.49,0,0,0,1.53-.49c.62-.41,1.25-.79,1.94-1.21Zm.92-6.39a3.91,3.91,0,0,0-1.29.38c-.7.47-1.43.87-2.15,1.3.14-.13.22-.29.34-.42.55-.57,1.09-1.13,1.63-1.71a.41.41,0,0,1,.57-.13c.2.1.41.15.61.23a2.65,2.65,0,0,1,.62.29Zm.66.57c-.05-.14-.07-.3-.11-.45l.06,0c.34.35.67.7,1,1a.27.27,0,0,1,.06.35l-.71,1.67a7.52,7.52,0,0,1-.46,1c.05-.53.12-1,.19-1.56A3.75,3.75,0,0,0,338.05,471.11Z" transform="translate(-269.33 -438.55)" style="fill:#fff"/><path d="M356.47,485.63c-.11-.11-3.94-2.52-8-5.07-.68.58-1.39,1.14-2.12,1.67l1,.59c1.92,1.14,3.84,2.27,5.76,3.42.54.32.53.32.2.87-.14.22-.24.23-.45.09q-2.06-1.4-4.12-2.76c-.94-.63-1.89-1.24-2.84-1.87l-.85.6,8.83,5.82a1.11,1.11,0,0,0,1.57-.34c.35-.54.71-1.08,1-1.64A1,1,0,0,0,356.47,485.63Z" transform="translate(-269.33 -438.55)" style="fill:#fff"/><polyline points="31.07 64.95 48.43 64.95 48.43 63.2 31.07 63.2" style="fill:#fff"/><polyline points="31.07 74.09 48.43 74.09 48.43 72.34 31.07 72.34" style="fill:#fff"/><polyline points="39.44 69.52 48.43 69.52 48.43 67.77 39.44 67.77" style="fill:#fff"/><polyline points="114.43 63.2 97.07 63.2 97.07 64.95 114.43 64.95" style="fill:#fff"/><polyline points="114.43 72.34 97.07 72.34 97.07 74.09 114.43 74.09" style="fill:#fff"/><polyline points="106.06 67.77 97.07 67.77 97.07 69.52 106.06 69.52" style="fill:#fff"/><path d="M282.39,536.54l4,10.39h-3.69L280,538.65v8.28h-3.45V526.15H280v8.25l2.67-8.25h3.69Z" transform="translate(-269.33 -438.55)" style="fill:#fff"/><path d="M301.22,542.77c0,3-1.5,4.48-4.48,4.49s-4.48-1.5-4.48-4.49V526.15h3.46v16.62q0,1.17,1,1.17t1-1.17V526.15h3.46Z" transform="translate(-269.33 -438.55)" style="fill:#fff"/><path d="M308.06,526.15h4.79q4.17,0,4.17,4.5v3.06a3.58,3.58,0,0,0,0,5.66v3.07q0,4.47-4.35,4.49h-4.61Zm3.46,3.31v5.42h.66a2.68,2.68,0,0,0,.73-.06,1.07,1.07,0,0,0,.65-1.11v-3.06c0-.79-.34-1.19-1-1.19Zm0,8.74v5.42h1c.67,0,1-.39,1-1.18v-3.07a1,1,0,0,0-.65-1.1,2.3,2.3,0,0,0-.73-.07Z" transform="translate(-269.33 -438.55)" style="fill:#fff"/><path d="M323.65,526.15h8.14v3.31h-4.68v5.42h4v3.32h-4v5.42h4.68v3.31h-8.14Z" transform="translate(-269.33 -438.55)" style="fill:#fff"/><path d="M338,530.31q0-4.48,4.47-4.48t4.49,4.48v3h-3.46v-3q0-1.15-1-1.17h0c-.67,0-1,.39-1,1.17v1.85c0,.84.88,1.9,2.65,3.18a5.84,5.84,0,0,1,2.85,4.85v2.58q0,4.49-4.48,4.49c-3,0-4.48-1.51-4.48-4.49v-2.95h3.46v2.95q0,1.17,1,1.17t1-1.17v-2.33c0-.92-.88-2-2.65-3.29a5.92,5.92,0,0,1-2.85-4.93Z" transform="translate(-269.33 -438.55)" style="fill:#fff"/><path d="M360.36,539.92l3.2-13.77H367v20.78h-3.33v-9.56l-2,9.56h-2.43l-2.11-9.62v9.62h-3.36V526.15h3.41Z" transform="translate(-269.33 -438.55)" style="fill:#fff"/><path d="M374,526.15h3.46v20.78H374Z" transform="translate(-269.33 -438.55)" style="fill:#fff"/><path d="M392.55,526.15v3.31H389.8v17.47h-3.45V529.46H383.6v-3.31Z" transform="translate(-269.33 -438.55)" style="fill:#fff"/><path d="M398.67,526.15h3.45v8.73h2.05v-8.73h3.45v20.78h-3.45V538.2h-2.05v8.73h-3.45Z" transform="translate(-269.33 -438.55)" style="fill:#fff"/><polygon points="144 113.7 144 112.2 3 112.2 3 83.79 142.5 83.79 142.5 113.7 144 113.7 144 112.2 144 113.7 145.5 113.7 145.5 80.79 0 80.79 0 115.2 145.5 115.2 145.5 113.7 144 113.7" style="fill:#fff"/></svg>